# xmcd
#
# Track frame offsets: 
#        150
#        18190
#        35720
#        51442
#        69967
#        85057
#        104495
#        118230
#        131207
#        154742
#        167545
#        194722
#
# Disc length: 2830 seconds
#
# Revision: 0
# Processed by: cddbd v1.5.2PL0 Copyright (c) Steve Scherf et al.
# Submitted via: ExactAudioCopy v0.99pb5
#
DISCID=a80b0c0c
DTITLE=Jon Shain - No Tag, No Tail Light
DYEAR=2003
DGENRE=Piedmont Blues
TTITLE0=Worried Messenger
TTITLE1=Getaway Car
TTITLE2=Philly Girl
TTITLE3=Give My Regards To Brother Ray
TTITLE4=Get What You Deserve
TTITLE5=The Deep Freeze
TTITLE6=Ka-Ching Ka-Ching
TTITLE7=Only The Blues
TTITLE8=Merrimack
TTITLE9=Second Chance Blues
TTITLE10=Whistle Blower
TTITLE11=Charade
EXTD=
EXTT0=
EXTT1=
EXTT2=
EXTT3=
EXTT4=
EXTT5=
EXTT6=
EXTT7=
EXTT8=
EXTT9=
EXTT10=
EXTT11=
PLAYORDER=
